<svg xmlns="http://www.w3.org/2000/svg" xmlns:xlink="http://www.w3.org/1999/xlink" width="819" height="573" viewBox="0 0 819 573">
  <defs>
    <clipPath id="clip-path">
      <rect id="Rectangle_25" data-name="Rectangle 25" width="372" height="123" transform="translate(0)"/>
    </clipPath>
    <clipPath id="clip-path-2">
      <rect id="Rectangle_24" data-name="Rectangle 24" width="1002.035" height="909.65"/>
    </clipPath>
    <clipPath id="clip-path-3">
      <rect id="Rectangle_23" data-name="Rectangle 23" width="1980.503" height="1980.503"/>
    </clipPath>
    <clipPath id="clip-path-5">
      <rect id="Rectangle_19" data-name="Rectangle 19" width="531.98" height="226.044"/>
    </clipPath>
    <clipPath id="clip-path-7">
      <rect id="Rectangle_21" data-name="Rectangle 21" width="390.731" height="308.285"/>
    </clipPath>
    <clipPath id="clip-path-8">
      <rect id="Rectangle_28" data-name="Rectangle 28" width="372" height="124" transform="translate(0)"/>
    </clipPath>
    <clipPath id="clip-path-9">
      <rect id="Rectangle_27" data-name="Rectangle 27" width="775.603" height="499.559"/>
    </clipPath>
    <clipPath id="clip-path-10">
      <rect id="Rectangle_26" data-name="Rectangle 26" width="944.085" height="944.085"/>
    </clipPath>
    <clipPath id="clip-path-11">
      <rect id="Rectangle_41" data-name="Rectangle 41" width="372" height="176" transform="translate(0)"/>
    </clipPath>
    <clipPath id="clip-path-12">
      <rect id="Rectangle_40" data-name="Rectangle 40" width="1396.974" height="1360.345"/>
    </clipPath>
    <clipPath id="clip-path-13">
      <rect id="Rectangle_39" data-name="Rectangle 39" width="2911.81" height="2911.81"/>
    </clipPath>
    <clipPath id="clip-path-15">
      <rect id="Rectangle_29" data-name="Rectangle 29" width="710.451" height="113.706"/>
    </clipPath>
    <clipPath id="clip-path-17">
      <rect id="Rectangle_31" data-name="Rectangle 31" width="675.062" height="230.175"/>
    </clipPath>
    <clipPath id="clip-path-19">
      <rect id="Rectangle_33" data-name="Rectangle 33" width="660.271" height="371.785"/>
    </clipPath>
    <clipPath id="clip-path-21">
      <rect id="Rectangle_35" data-name="Rectangle 35" width="600.875" height="291.79"/>
    </clipPath>
    <clipPath id="clip-path-23">
      <rect id="Rectangle_37" data-name="Rectangle 37" width="698.216" height="192.384"/>
    </clipPath>
    <clipPath id="clip-path-34">
      <rect id="Rectangle_48" data-name="Rectangle 48" width="579.554" height="457.819"/>
    </clipPath>
    <clipPath id="clip-path-36">
      <rect id="Rectangle_50" data-name="Rectangle 50" width="489.75" height="614.014"/>
    </clipPath>
    <clipPath id="clip-path-38">
      <rect id="Rectangle_52" data-name="Rectangle 52" width="362.492" height="660.09"/>
    </clipPath>
    <clipPath id="clip-path-40">
      <rect id="Rectangle_54" data-name="Rectangle 54" width="246.256" height="687.994"/>
    </clipPath>
    <clipPath id="clip-path-42">
      <rect id="Rectangle_56" data-name="Rectangle 56" width="369.255" height="578.702"/>
    </clipPath>
    <clipPath id="clip-path-46">
      <rect id="Rectangle_60" data-name="Rectangle 60" width="501.495" height="455.057"/>
    </clipPath>
    <clipPath id="clip-path-48">
      <rect id="Rectangle_62" data-name="Rectangle 62" width="215.719" height="671.112"/>
    </clipPath>
    <clipPath id="clip-path-52">
      <rect id="Rectangle_66" data-name="Rectangle 66" width="484.691" height="561.355"/>
    </clipPath>
    <clipPath id="clip-path-54">
      <rect id="Rectangle_76" data-name="Rectangle 76" width="507.303" height="559.91" transform="matrix(0.815, -0.58, 0.58, 0.815, 0, 294.084)"/>
    </clipPath>
    <clipPath id="clip-path-55">
      <rect id="Rectangle_75" data-name="Rectangle 75" width="930.585" height="930.585" transform="matrix(0.815, -0.58, 0.58, 0.815, 0, 539.46)"/>
    </clipPath>
    <clipPath id="clip-path-57">
      <rect id="Rectangle_71" data-name="Rectangle 71" width="426.095" height="185.182" transform="matrix(0.815, -0.58, 0.58, 0.815, 0, 247.007)"/>
    </clipPath>
    <clipPath id="clip-path-59">
      <rect id="Rectangle_73" data-name="Rectangle 73" width="289.725" height="229.891" transform="matrix(0.815, -0.58, 0.58, 0.815, 0, 167.954)"/>
    </clipPath>
    <clipPath id="clip-path-61">
      <rect id="Rectangle_81" data-name="Rectangle 81" width="606.218" height="267.268"/>
    </clipPath>
    <clipPath id="clip-path-62">
      <rect id="Rectangle_80" data-name="Rectangle 80" width="946.098" height="946.098"/>
    </clipPath>
    <clipPath id="clip-path-64">
      <rect id="Rectangle_78" data-name="Rectangle 78" width="104.749" height="104.672"/>
    </clipPath>
  </defs>
  <g id="background-world-map-1440x960-02" transform="translate(3080.496 1300)">
    <g id="Group_25" data-name="Group 25" transform="translate(-2633.497 -1150)">
      <g id="Group_24" data-name="Group 24" transform="translate(0 0)" clip-path="url(#clip-path)">
        <g id="Group_23" data-name="Group 23" transform="translate(-290.354 -649.25)">
          <g id="Group_22" data-name="Group 22" clip-path="url(#clip-path-2)">
            <g id="Group_21" data-name="Group 21" transform="translate(-464.763 -528.134)" clip-path="url(#clip-path-3)">
              <g id="Group_17" data-name="Group 17" clip-path="url(#clip-path-3)">
                <g id="Group_16" data-name="Group 16" transform="translate(813.626 1003.558)">
                  <g id="Group_15" data-name="Group 15" transform="translate(0 0)" clip-path="url(#clip-path-5)">
                    <path id="Path_1" data-name="Path 1" d="M-821.093-692.483q-211.718-58.466-423.462-116.933c-27.568-7.615-60.738,9.422-67.294,38.2-6.582,28.936,8.7,59.138,38.2,67.294q211.718,58.466,423.462,116.933c27.568,7.589,60.738-9.422,67.295-38.2,6.582-28.936-8.7-59.138-38.2-67.294" transform="translate(1313.373 811.223)" fill="#e2231a"/>
                  </g>
                </g>
              </g>
              <g id="Group_20" data-name="Group 20" clip-path="url(#clip-path-3)">
                <g id="Group_19" data-name="Group 19" transform="translate(931.075 1022.298)">
                  <g id="Group_18" data-name="Group 18" transform="translate(0)" clip-path="url(#clip-path-7)">
                    <path id="Path_2" data-name="Path 2" d="M-505.611-575.187q-118.249-76.394-236.525-152.787c-34.228-22.122-87.377-8.105-106.4,27.9-20.418,38.668-8.647,82.782,27.9,106.4q118.288,76.355,236.525,152.761c34.228,22.122,87.377,8.105,106.4-27.9,20.418-38.642,8.622-82.782-27.9-106.375" transform="translate(858.475 738.583)" fill="#ca003d"/>
                  </g>
                </g>
              </g>
            </g>
          </g>
        </g>
      </g>
    </g>
    <g id="Group_50" data-name="Group 50" transform="translate(-3080.496 -1197)">
      <g id="Group_49" data-name="Group 49" transform="translate(0 0)" clip-path="url(#clip-path-11)">
        <g id="Group_48" data-name="Group 48" transform="translate(-435.744 -392.39)">
          <g id="Group_47" data-name="Group 47" clip-path="url(#clip-path-12)">
            <g id="Group_46" data-name="Group 46" transform="translate(-883.321 -691.091)" clip-path="url(#clip-path-13)">
              <g id="Group_33" data-name="Group 33" clip-path="url(#clip-path-13)">
                <g id="Group_32" data-name="Group 32" transform="translate(1569.844 1293.799)">
                  <g id="Group_31" data-name="Group 31" transform="translate(0 0)" clip-path="url(#clip-path-15)">
                    <path id="Path_3" data-name="Path 3" d="M-1399.978,555.909c-1.291-28.859-23.154-52.271-52.684-52.684q-302.477-4.143-604.979-8.338c-27.568-.387-53.949,24.5-52.684,52.684,1.291,28.859,23.154,52.271,52.684,52.684q302.477,4.182,604.979,8.338c27.568.387,53.949-24.5,52.684-52.684" transform="translate(2110.377 -494.887)" fill="#e2231a"/>
                  </g>
                </g>
              </g>
              <g id="Group_36" data-name="Group 36" clip-path="url(#clip-path-13)">
                <g id="Group_35" data-name="Group 35" transform="translate(1579.885 1340.65)">
                  <g id="Group_34" data-name="Group 34" transform="translate(0 0)" clip-path="url(#clip-path-17)">
                    <path id="Path_4" data-name="Path 4" d="M-1396.353,864.953c0-23.774-19.05-39.907-41.482-41.507-196.54-13.965-391.4-62.183-571.474-142.307-20.47-9.112-44.579-5.937-56.763,14.894-10.351,17.682-5.679,47.6,14.894,56.763,194.32,86.448,401.16,138.564,613.369,153.613,22.354,1.626,41.456-20.186,41.456-41.456" transform="translate(2071.415 -676.337)" fill="#a1b1c8"/>
                  </g>
                </g>
              </g>
              <g id="Group_39" data-name="Group 39" clip-path="url(#clip-path-13)">
                <g id="Group_38" data-name="Group 38" transform="translate(1539.41 1341.966)">
                  <g id="Group_37" data-name="Group 37" transform="translate(0 0)" clip-path="url(#clip-path-19)">
                    <path id="Path_5" data-name="Path 5" d="M-1569.438,1017.492c6.04-26.536-8-51.419-33.918-59.705q-294.113-94.089-552.3-269.514c-21.063-14.3-54.724-4.7-66.417,17.424-12.984,24.574-5.059,51.161,17.424,66.417,177.1,120.16,371.656,214.093,575.5,279.3,24.187,7.744,54.052-9.06,59.706-33.918" transform="translate(2228.315 -681.51)" fill="#ca003d"/>
                  </g>
                </g>
              </g>
              <g id="Group_42" data-name="Group 42" clip-path="url(#clip-path-13)">
                <g id="Group_41" data-name="Group 41" transform="translate(1566.101 1048.524)">
                  <g id="Group_40" data-name="Group 40" transform="translate(0 0)" clip-path="url(#clip-path-21)">
                    <path id="Path_6" data-name="Path 6" d="M-2075.895-165.564l523.539-213.241c19.308-7.873,32.963-25.71,26.975-47.522-5.008-18.276-28.059-34.873-47.5-26.975l-523.539,213.267c-19.308,7.873-32.963,25.684-26.975,47.522,5.008,18.276,28.059,34.873,47.5,26.949" transform="translate(2124.836 455.315)" fill="#e2231a"/>
                  </g>
                </g>
              </g>
              <g id="Group_45" data-name="Group 45" clip-path="url(#clip-path-13)">
                <g id="Group_44" data-name="Group 44" transform="translate(1541.527 1172.53)">
                  <g id="Group_43" data-name="Group 43" transform="translate(0 0)" clip-path="url(#clip-path-23)">
                    <path id="Path_7" data-name="Path 7" d="M-1556.672,118.2c24.574-7.124,39.933-33.376,33.092-58.286-6.711-24.5-33.609-40.242-58.286-33.092-194.269,56.376-389.725,88.2-590.86,95.869-24.729.955-48.554,21.115-47.393,47.393,1.11,24.858,20.857,48.4,47.393,47.393A2565.5,2565.5,0,0,0-1556.672,118.2" transform="translate(2220.143 -25.09)" fill="#ff5f00"/>
                  </g>
                </g>
              </g>
            </g>
          </g>
        </g>
      </g>
    </g>
    <g id="Group_94" data-name="Group 94" transform="translate(-2633.497 -1300)">
      <g id="Group_93" data-name="Group 93" transform="translate(0 0)" clip-path="url(#clip-path-8)">
        <g id="Group_92" data-name="Group 92" transform="translate(-436.223 -418.455)">
          <g id="Group_91" data-name="Group 91" clip-path="url(#clip-path-12)">
            <g id="Group_90" data-name="Group 90" transform="translate(-883.321 -691.091)" clip-path="url(#clip-path-13)">
              <g id="Group_53" data-name="Group 53" clip-path="url(#clip-path-13)">
                <g id="Group_52" data-name="Group 52" transform="translate(1569.844 1293.799)">
                  <g id="Group_51" data-name="Group 51" transform="translate(0 0)" clip-path="url(#clip-path-15)">
                    <path id="Path_8" data-name="Path 8" d="M140.022,55.909C138.732,27.05,116.868,3.638,87.338,3.225Q-215.139-.957-517.641-5.113c-27.568-.387-53.949,24.5-52.684,52.684,1.291,28.859,23.154,52.271,52.684,52.684q302.477,4.182,604.979,8.338c27.568.387,53.949-24.5,52.684-52.684" transform="translate(570.377 5.113)" fill="#e2231a"/>
                  </g>
                </g>
              </g>
              <g id="Group_56" data-name="Group 56" clip-path="url(#clip-path-13)">
                <g id="Group_55" data-name="Group 55" transform="translate(1579.885 1340.65)">
                  <g id="Group_54" data-name="Group 54" transform="translate(0 0)" clip-path="url(#clip-path-17)">
                    <path id="Path_9" data-name="Path 9" d="M143.573,365.027c0-23.774-19.05-39.907-41.481-41.507-196.54-13.939-391.4-62.184-571.5-142.281-20.47-9.112-44.579-5.937-56.763,14.894-10.351,17.682-5.679,47.6,14.894,56.763,194.32,86.448,401.16,138.564,613.369,153.613,22.38,1.6,41.481-20.212,41.481-41.482" transform="translate(531.489 -176.411)" fill="#a1b1c8"/>
                  </g>
                </g>
              </g>
              <g id="Group_59" data-name="Group 59" clip-path="url(#clip-path-13)">
                <g id="Group_58" data-name="Group 58" transform="translate(1539.41 1341.966)">
                  <g id="Group_57" data-name="Group 57" transform="translate(0 0)" clip-path="url(#clip-path-19)">
                    <path id="Path_10" data-name="Path 10" d="M-29.364,517.492c6.04-26.536-8-51.419-33.918-59.705Q-357.357,363.7-615.552,188.273c-21.063-14.3-54.724-4.7-66.417,17.424-12.984,24.574-5.059,51.161,17.424,66.417,177.1,120.16,371.63,214.093,575.475,279.3,24.187,7.744,54.052-9.06,59.705-33.918" transform="translate(688.241 -181.51)" fill="#ca003d"/>
                  </g>
                </g>
              </g>
              <g id="Group_62" data-name="Group 62" clip-path="url(#clip-path-13)">
                <g id="Group_61" data-name="Group 61" transform="translate(1522.735 1353.892)">
                  <g id="Group_60" data-name="Group 60" transform="translate(0 0)" clip-path="url(#clip-path-34)">
                    <path id="Path_11" data-name="Path 11" d="M-179.887,660.444c13.81-26.174,4.543-51.678-17.94-68.4Q-437.927,413.5-678.052,235.02c-21.063-15.668-56.737-4.13-68.4,17.94-13.81,26.174-4.543,51.678,17.94,68.4q240.1,178.5,480.251,357.045c21.063,15.617,56.711,4.1,68.379-17.966" transform="translate(752.936 -227.767)" fill="#e2231a"/>
                  </g>
                </g>
              </g>
              <g id="Group_65" data-name="Group 65" clip-path="url(#clip-path-13)">
                <g id="Group_64" data-name="Group 64" transform="translate(1509.441 1305.08)">
                  <g id="Group_63" data-name="Group 63" transform="translate(0 0)" clip-path="url(#clip-path-36)">
                    <path id="Path_12" data-name="Path 12" d="M-329.109,638.143c17.888-19.489,20.7-52.194,0-71.321q-58.544-54.091-112.312-112.958-26.833-29.466-52.349-60.041c-16.882-20.237-34.486-42.333-46.644-58.389A1845.9,1845.9,0,0,1-710.909,63.52c-12.055-23.516-46.98-32.292-69-18.095-24.006,15.488-30.976,43.83-18.095,69a1886.776,1886.776,0,0,0,397.572,523.72c19.386,17.914,52.4,20.625,71.321,0" transform="translate(804.378 -38.585)" fill="#822c41"/>
                  </g>
                </g>
              </g>
              <g id="Group_68" data-name="Group 68" clip-path="url(#clip-path-13)">
                <g id="Group_67" data-name="Group 67" transform="translate(1495.167 1320.025)">
                  <g id="Group_66" data-name="Group 66" transform="translate(0 0)" clip-path="url(#clip-path-38)">
                    <path id="Path_13" data-name="Path 13" d="M-503.739,693.072A3138.182,3138.182,0,0,1-775.163,127.948c-7.847-21.735-29.117-36.371-52.659-29.891-20.986,5.756-37.79,30.795-29.891,52.659,73.7,203.9,167.268,400.385,280.045,585.568,28.627,47.005,102.71,4.027,73.928-43.211" transform="translate(859.7 -96.508)" fill="#e2231a"/>
                  </g>
                </g>
              </g>
              <g id="Group_71" data-name="Group 71" clip-path="url(#clip-path-13)">
                <g id="Group_70" data-name="Group 70" transform="translate(1485.951 1306.086)">
                  <g id="Group_69" data-name="Group 69" transform="translate(0 0)" clip-path="url(#clip-path-40)">
                    <path id="Path_14" data-name="Path 14" d="M-669.483,724.922c21.063-12.313,25.168-37.274,15.2-57.976A1626.164,1626.164,0,0,1-810.525,84.785C-812.255,61.966-828.775,42.4-852.91,42.4c-21.58,0-44.089,19.437-42.359,42.385a1738.52,1738.52,0,0,0,167.81,624.933c9.938,20.625,39.339,26.1,57.976,15.2" transform="translate(895.373 -42.426)" fill="#b6008d"/>
                  </g>
                </g>
              </g>
              <g id="Group_74" data-name="Group 74" clip-path="url(#clip-path-13)">
                <g id="Group_73" data-name="Group 73" transform="translate(1515.636 795.686)">
                  <g id="Group_72" data-name="Group 72" transform="translate(0)" clip-path="url(#clip-path-42)">
                    <path id="Path_15" data-name="Path 15" d="M-687.558-1380.355A3822.843,3822.843,0,0,0-416.987-1860.58c11.1-23.49,7.331-54.775-17.863-68.095-22.1-11.667-56.221-7.279-68.095,17.863A3821.557,3821.557,0,0,1-773.49-1430.561c-14.4,21.734-4.982,56.014,17.863,68.095,24.961,13.165,52.71,5.343,68.069-17.888" transform="translate(780.356 1934.818)" fill="#b6008d"/>
                  </g>
                </g>
              </g>
              <g id="Group_77" data-name="Group 77" clip-path="url(#clip-path-13)">
                <g id="Group_76" data-name="Group 76" transform="translate(1566.101 1048.524)">
                  <g id="Group_75" data-name="Group 75" transform="translate(0 0)" clip-path="url(#clip-path-21)">
                    <path id="Path_16" data-name="Path 16" d="M-535.969-665.67-12.43-878.937c19.308-7.873,32.963-25.71,26.975-47.522-5.034-18.3-28.085-34.9-47.522-26.975L-556.516-740.141c-19.308,7.873-32.963,25.684-26.975,47.522,5.034,18.276,28.085,34.873,47.522,26.949" transform="translate(584.911 955.421)" fill="#e2231a"/>
                  </g>
                </g>
              </g>
              <g id="Group_80" data-name="Group 80" clip-path="url(#clip-path-13)">
                <g id="Group_79" data-name="Group 79" transform="translate(1565.636 910.967)">
                  <g id="Group_78" data-name="Group 78" transform="translate(0 0)" clip-path="url(#clip-path-46)">
                    <path id="Path_17" data-name="Path 17" d="M-521.572-1038.985c166.545-99.767,311.46-230.355,429.941-383.891,14.326-18.585,2.839-48.632-15.565-59.422-22.432-13.113-45.044-3.046-59.422,15.565-108.337,140.423-245.946,261.2-398.785,352.76-20.083,12.029-27.491,39-15.565,59.4,11.771,20.134,39.21,27.672,59.4,15.591" transform="translate(586.698 1488.235)" fill="#a1b1c8"/>
                  </g>
                </g>
              </g>
              <g id="Group_83" data-name="Group 83" clip-path="url(#clip-path-13)">
                <g id="Group_82" data-name="Group 82" transform="translate(1516.488 701.52)">
                  <g id="Group_81" data-name="Group 81" transform="translate(0)" clip-path="url(#clip-path-48)">
                    <path id="Path_18" data-name="Path 18" d="M-678.744-1664.972q58.118-285.672,116.21-571.293c5.24-25.761-7.434-55.679-35.209-62-25.116-5.73-56.376,7.563-62,35.209q-58.079,285.634-116.184,571.267c-5.24,25.761,7.434,55.679,35.209,62,25.116,5.731,56.376-7.563,61.977-35.183" transform="translate(777.091 2299.584)" fill="#ff5f00"/>
                  </g>
                </g>
              </g>
              <g id="Group_86" data-name="Group 86" clip-path="url(#clip-path-13)">
                <g id="Group_85" data-name="Group 85" transform="translate(1541.527 1172.53)">
                  <g id="Group_84" data-name="Group 84" transform="translate(0 0)" clip-path="url(#clip-path-23)">
                    <path id="Path_19" data-name="Path 19" d="M-16.672-381.8c24.574-7.124,39.933-33.376,33.092-58.286-6.737-24.5-33.609-40.242-58.286-33.092-194.269,56.376-389.725,88.2-590.86,95.87-24.755.955-48.554,21.115-47.393,47.367,1.11,24.858,20.857,48.4,47.393,47.393A2564.19,2564.19,0,0,0-16.672-381.8" transform="translate(680.143 474.91)" fill="#ff5f00"/>
                  </g>
                </g>
              </g>
              <g id="Group_89" data-name="Group 89" clip-path="url(#clip-path-13)">
                <g id="Group_88" data-name="Group 88" transform="translate(1464.888 858.979)">
                  <g id="Group_87" data-name="Group 87" transform="translate(0)" clip-path="url(#clip-path-52)">
                    <path id="Path_20" data-name="Path 20" d="M-895.224-1140.352a3909.442,3909.442,0,0,0,394.629-472.481c14.972-21.141,9.215-54.8-13.19-68.611-23.18-14.3-52.633-9.344-68.611,13.19q-86.461,122.005-182.188,237.118-23.309,27.955-47.109,55.446c-17.217,19.876-27.259,31.208-45.224,51.058q-50.606,55.988-103.407,109.912c-18.017,18.431-24.058,49.406-4.646,69.721,17.321,18.121,50.413,24.419,69.747,4.646" transform="translate(976.974 1689.524)" fill="#ca003d"/>
                  </g>
                </g>
              </g>
            </g>
          </g>
        </g>
      </g>
    </g>
    <g id="Group_106" data-name="Group 106" transform="translate(-2633.497 -851)">
      <g id="Group_105" data-name="Group 105" transform="translate(0 0)" clip-path="url(#clip-path-8)">
        <g id="Group_104" data-name="Group 104" transform="translate(-224.246 -371.713)">
          <g id="Group_103" data-name="Group 103" transform="translate(0 0)" clip-path="url(#clip-path-54)">
            <g id="Group_102" data-name="Group 102" transform="translate(-273.894 -300.098)" clip-path="url(#clip-path-55)">
              <g id="Group_97" data-name="Group 97" transform="translate(0)" clip-path="url(#clip-path-55)">
                <g id="Group_96" data-name="Group 96" transform="translate(523.575 629.431)">
                  <g id="Group_95" data-name="Group 95" transform="translate(0 0)" clip-path="url(#clip-path-57)">
                    <path id="Path_21" data-name="Path 21" d="M-1006.832,916.648c-14.2-10.79-30.537-7.408-42.72,4.362-18.069,17.475-41.766,34.641-63.268,50.387-23.309,17.062-46.231,34.667-69.024,52.4-46.334,36.061-92.514,72.38-141.042,105.5-11.409,7.8-15.281,23.128-10.635,35.648-1.342,11.745,3.666,24.316,13.629,30.64,4.595,17.579,17.708,34.383,30.485,45.431,19.953,17.243,46.567,16.6,69.7,6.479,21.347-9.37,40.242-23.18,58.621-37.326,20.057-15.41,41.585-28.369,62.8-42.1,29.814-19.282,59.473-38.8,89.545-57.692,6.092-3.82,12.468-7.382,18.43-11.409.232-.1.49-.232.774-.361,2.426-1.161,4.879-2.375,7.305-3.562,11.255-5.5,23.361-10.945,33.015-19.1,13.165-11.125,22.716-25.606,20.831-43.624-1.626-15.591-12.8-28.936-22.1-40.81-19.36-24.755-30.588-55.291-56.35-74.858" transform="translate(1362.827 -896.244)" fill="#ca003d"/>
                  </g>
                </g>
              </g>
            </g>
          </g>
        </g>
      </g>
    </g>
    <g id="Group_114" data-name="Group 114" transform="translate(-2633.497 -1001)">
      <g id="Group_113" data-name="Group 113" transform="translate(0 0)" clip-path="url(#clip-path-8)">
        <g id="Group_112" data-name="Group 112" transform="translate(-177.706 -41.155)">
          <g id="Group_111" data-name="Group 111" clip-path="url(#clip-path-61)">
            <g id="Group_110" data-name="Group 110" transform="translate(-194.553 -317.526)" clip-path="url(#clip-path-62)">
              <g id="Group_109" data-name="Group 109" clip-path="url(#clip-path-62)">
                <g id="Group_108" data-name="Group 108" transform="translate(696.022 317.526)">
                  <g id="Group_107" data-name="Group 107" clip-path="url(#clip-path-64)">
                    <path id="Path_22" data-name="Path 22" d="M-285.826,332.349c1.265,28.343,23,52.323,52.323,52.323,27.388,0,53.614-24.084,52.323-52.323C-182.419,303.98-204.154,280-233.478,280c-27.388,0-53.614,24.084-52.349,52.349" transform="translate(285.852 -280)" fill="#b6008d"/>
                  </g>
                </g>
              </g>
            </g>
          </g>
        </g>
      </g>
    </g>
  </g>
</svg>
