<svg xmlns="http://www.w3.org/2000/svg" xmlns:xlink="http://www.w3.org/1999/xlink" width="687" height="481" viewBox="0 0 687 481">
  <defs>
    <clipPath id="clip-path">
      <rect id="Rectangle_25" data-name="Rectangle 25" width="312" height="103" transform="translate(0.251 0.084)"/>
    </clipPath>
    <clipPath id="clip-path-2">
      <rect id="Rectangle_24" data-name="Rectangle 24" width="841.15" height="763.598"/>
    </clipPath>
    <clipPath id="clip-path-3">
      <rect id="Rectangle_23" data-name="Rectangle 23" width="1662.517" height="1662.516"/>
    </clipPath>
    <clipPath id="clip-path-5">
      <rect id="Rectangle_19" data-name="Rectangle 19" width="446.566" height="189.751"/>
    </clipPath>
    <clipPath id="clip-path-7">
      <rect id="Rectangle_21" data-name="Rectangle 21" width="327.996" height="258.787"/>
    </clipPath>
    <clipPath id="clip-path-8">
      <rect id="Rectangle_28" data-name="Rectangle 28" width="312" height="104" transform="translate(0.251 0)"/>
    </clipPath>
    <clipPath id="clip-path-9">
      <rect id="Rectangle_27" data-name="Rectangle 27" width="651.074" height="419.351"/>
    </clipPath>
    <clipPath id="clip-path-10">
      <rect id="Rectangle_26" data-name="Rectangle 26" width="792.504" height="792.504"/>
    </clipPath>
    <clipPath id="clip-path-11">
      <rect id="Rectangle_41" data-name="Rectangle 41" width="312" height="148" transform="translate(0.021 -0.462)"/>
    </clipPath>
    <clipPath id="clip-path-12">
      <rect id="Rectangle_40" data-name="Rectangle 40" width="1172.679" height="1141.93"/>
    </clipPath>
    <clipPath id="clip-path-13">
      <rect id="Rectangle_39" data-name="Rectangle 39" width="2444.296" height="2444.294"/>
    </clipPath>
    <clipPath id="clip-path-15">
      <rect id="Rectangle_29" data-name="Rectangle 29" width="596.383" height="95.45"/>
    </clipPath>
    <clipPath id="clip-path-17">
      <rect id="Rectangle_31" data-name="Rectangle 31" width="566.675" height="193.218"/>
    </clipPath>
    <clipPath id="clip-path-19">
      <rect id="Rectangle_33" data-name="Rectangle 33" width="554.259" height="312.091"/>
    </clipPath>
    <clipPath id="clip-path-21">
      <rect id="Rectangle_35" data-name="Rectangle 35" width="504.4" height="244.941"/>
    </clipPath>
    <clipPath id="clip-path-23">
      <rect id="Rectangle_37" data-name="Rectangle 37" width="586.112" height="161.495"/>
    </clipPath>
    <clipPath id="clip-path-34">
      <rect id="Rectangle_48" data-name="Rectangle 48" width="486.502" height="384.313"/>
    </clipPath>
    <clipPath id="clip-path-36">
      <rect id="Rectangle_50" data-name="Rectangle 50" width="411.117" height="515.429"/>
    </clipPath>
    <clipPath id="clip-path-38">
      <rect id="Rectangle_52" data-name="Rectangle 52" width="304.291" height="554.107"/>
    </clipPath>
    <clipPath id="clip-path-40">
      <rect id="Rectangle_54" data-name="Rectangle 54" width="206.718" height="577.531"/>
    </clipPath>
    <clipPath id="clip-path-42">
      <rect id="Rectangle_56" data-name="Rectangle 56" width="309.968" height="485.786"/>
    </clipPath>
    <clipPath id="clip-path-46">
      <rect id="Rectangle_60" data-name="Rectangle 60" width="420.976" height="381.994"/>
    </clipPath>
    <clipPath id="clip-path-48">
      <rect id="Rectangle_62" data-name="Rectangle 62" width="181.084" height="563.359"/>
    </clipPath>
    <clipPath id="clip-path-52">
      <rect id="Rectangle_66" data-name="Rectangle 66" width="406.87" height="471.225"/>
    </clipPath>
    <clipPath id="clip-path-53">
      <rect id="Rectangle_77" data-name="Rectangle 77" width="312" height="104" transform="translate(0.251 0.091)"/>
    </clipPath>
    <clipPath id="clip-path-54">
      <rect id="Rectangle_76" data-name="Rectangle 76" width="425.841" height="470" transform="translate(346.984 629.832) rotate(-144.57)"/>
    </clipPath>
    <clipPath id="clip-path-55">
      <rect id="Rectangle_75" data-name="Rectangle 75" width="781.153" height="781.153" transform="translate(636.499 1089.344) rotate(-144.57)"/>
    </clipPath>
    <clipPath id="clip-path-57">
      <rect id="Rectangle_71" data-name="Rectangle 71" width="357.673" height="155.446" transform="translate(291.439 334.009) rotate(-144.57)"/>
    </clipPath>
    <clipPath id="clip-path-59">
      <rect id="Rectangle_73" data-name="Rectangle 73" width="243.202" height="192.975" transform="translate(198.165 298.227) rotate(-144.57)"/>
    </clipPath>
    <clipPath id="clip-path-60">
      <rect id="Rectangle_82" data-name="Rectangle 82" width="312" height="104" transform="translate(0.251 0.007)"/>
    </clipPath>
    <clipPath id="clip-path-61">
      <rect id="Rectangle_81" data-name="Rectangle 81" width="508.885" height="224.356"/>
    </clipPath>
    <clipPath id="clip-path-62">
      <rect id="Rectangle_80" data-name="Rectangle 80" width="794.195" height="794.194"/>
    </clipPath>
    <clipPath id="clip-path-64">
      <rect id="Rectangle_78" data-name="Rectangle 78" width="87.931" height="87.866"/>
    </clipPath>
  </defs>
  <g id="background-world-map-1440x960-02" transform="translate(-0.251)">
    <g id="Group_25" data-name="Group 25" transform="translate(0 125.916)">
      <g id="Group_24" data-name="Group 24" transform="translate(0 0)" clip-path="url(#clip-path)">
        <g id="Group_23" data-name="Group 23" transform="translate(-285.143 -545.007)">
          <g id="Group_22" data-name="Group 22" clip-path="url(#clip-path-2)">
            <g id="Group_21" data-name="Group 21" transform="translate(-431.225 -443.338)" clip-path="url(#clip-path-3)">
              <g id="Group_17" data-name="Group 17" clip-path="url(#clip-path-3)">
                <g id="Group_16" data-name="Group 16" transform="translate(532.959 842.428)">
                  <g id="Group_15" data-name="Group 15" transform="translate(0 0)" clip-path="url(#clip-path-5)">
                    <path id="Path_1" data-name="Path 1" d="M-1280.023-711.549q177.725-49.079,355.472-98.158c23.142-6.392,50.986,7.909,56.49,32.069,5.526,24.29-7.3,49.642-32.069,56.49q-177.725,49.079-355.472,98.158c-23.142,6.371-50.986-7.909-56.49-32.069-5.525-24.29,7.3-49.643,32.069-56.49" transform="translate(1313.349 811.224)" fill="#e2231a"/>
                  </g>
                </g>
              </g>
              <g id="Group_20" data-name="Group 20" clip-path="url(#clip-path-3)">
                <g id="Group_19" data-name="Group 19" transform="translate(552.937 858.159)">
                  <g id="Group_18" data-name="Group 18" clip-path="url(#clip-path-7)">
                    <path id="Path_2" data-name="Path 2" d="M-826.718-601.421q99.263-64.128,198.549-128.256c28.732-18.57,73.348-6.8,89.318,23.424,17.14,32.459,7.259,69.491-23.424,89.318q-99.3,64.1-198.549,128.234c-28.732,18.57-73.348,6.8-89.318-23.424-17.14-32.438-7.237-69.491,23.424-89.3" transform="translate(858.505 738.583)" fill="#ca003d"/>
                  </g>
                </g>
              </g>
            </g>
          </g>
        </g>
      </g>
    </g>
    <g id="Group_50" data-name="Group 50" transform="translate(375.23 86.463)">
      <g id="Group_49" data-name="Group 49" transform="translate(0 0)" clip-path="url(#clip-path-11)">
        <g id="Group_48" data-name="Group 48" transform="translate(-494.624 -329.389)">
          <g id="Group_47" data-name="Group 47" clip-path="url(#clip-path-12)">
            <g id="Group_46" data-name="Group 46" transform="translate(-530.12 -580.131)" clip-path="url(#clip-path-13)">
              <g id="Group_33" data-name="Group 33" clip-path="url(#clip-path-13)">
                <g id="Group_32" data-name="Group 32" transform="translate(530.12 1086.069)">
                  <g id="Group_31" data-name="Group 31" transform="translate(0 0)" clip-path="url(#clip-path-15)">
                    <path id="Path_3" data-name="Path 3" d="M-2110.333,546.111c1.083-24.225,19.437-43.879,44.226-44.225q253.912-3.478,507.845-7c23.142-.325,45.287,20.563,44.225,44.225-1.083,24.225-19.437,43.879-44.225,44.225q-253.912,3.51-507.845,7c-23.142.325-45.287-20.563-44.226-44.225" transform="translate(2110.376 -494.886)" fill="#e2231a"/>
                  </g>
                </g>
              </g>
              <g id="Group_36" data-name="Group 36" clip-path="url(#clip-path-13)">
                <g id="Group_35" data-name="Group 35" transform="translate(551.399 1125.397)">
                  <g id="Group_34" data-name="Group 34" transform="translate(0 0)" clip-path="url(#clip-path-17)">
                    <path id="Path_4" data-name="Path 4" d="M-2071.385,834.665c0-19.957,15.991-33.5,34.821-34.843,164.984-11.723,328.56-52.2,479.719-119.458,17.183-7.649,37.422-4.984,47.649,12.5,8.689,14.843,4.767,39.957-12.5,47.649a1531.51,1531.51,0,0,1-514.887,128.949c-18.765,1.365-34.8-16.945-34.8-34.8" transform="translate(2071.385 -676.334)" fill="#a1b1c8"/>
                  </g>
                </g>
              </g>
              <g id="Group_39" data-name="Group 39" clip-path="url(#clip-path-13)">
                <g id="Group_38" data-name="Group 38" transform="translate(597.791 1126.502)">
                  <g id="Group_37" data-name="Group 37" transform="translate(0 0)" clip-path="url(#clip-path-19)">
                    <path id="Path_5" data-name="Path 5" d="M-2227.152,963.548c-5.071-22.275,6.717-43.164,28.472-50.119q246.891-78.982,463.62-226.241c17.681-12,45.937-3.944,55.753,14.626,10.9,20.628,4.247,42.947-14.626,55.753-148.668,100.867-311.983,179.719-483.1,234.453-20.3,6.5-45.374-7.606-50.119-28.472" transform="translate(2228.323 -681.511)" fill="#ca003d"/>
                  </g>
                </g>
              </g>
              <g id="Group_42" data-name="Group 42" clip-path="url(#clip-path-13)">
                <g id="Group_41" data-name="Group 41" transform="translate(625.245 880.175)">
                  <g id="Group_40" data-name="Group 40" transform="translate(0 0)" clip-path="url(#clip-path-21)">
                    <path id="Path_6" data-name="Path 6" d="M-1661.495-212.087l-439.481-179c-16.208-6.609-27.671-21.582-22.644-39.892,4.2-15.341,23.554-29.274,39.87-22.644L-1644.268-274.6c16.208,6.609,27.671,21.56,22.644,39.892-4.2,15.341-23.553,29.274-39.87,22.622" transform="translate(2124.811 455.316)" fill="#e2231a"/>
                  </g>
                </g>
              </g>
              <g id="Group_45" data-name="Group 45" clip-path="url(#clip-path-13)">
                <g id="Group_44" data-name="Group 44" transform="translate(564.162 984.27)">
                  <g id="Group_43" data-name="Group 43" transform="translate(0 0)" clip-path="url(#clip-path-23)">
                    <path id="Path_7" data-name="Path 7" d="M-2191.009,103.248c-20.629-5.981-33.521-28.017-27.779-48.927,5.634-20.563,28.212-33.781,48.927-27.779,163.077,47.324,327.151,74.041,495.992,80.477,20.758.8,40.758,17.725,39.783,39.783-.932,20.867-17.508,40.628-39.783,39.783a2153.592,2153.592,0,0,1-517.141-83.337" transform="translate(2220.175 -25.09)" fill="#ff5f00"/>
                  </g>
                </g>
              </g>
            </g>
          </g>
        </g>
      </g>
    </g>
    <g id="Group_94" data-name="Group 94" transform="translate(0 0)">
      <g id="Group_93" data-name="Group 93" transform="translate(0 0)" clip-path="url(#clip-path-8)">
        <g id="Group_92" data-name="Group 92" transform="translate(-494.222 -351.269)">
          <g id="Group_91" data-name="Group 91" clip-path="url(#clip-path-12)">
            <g id="Group_90" data-name="Group 90" transform="translate(-530.12 -580.131)" clip-path="url(#clip-path-13)">
              <g id="Group_53" data-name="Group 53" clip-path="url(#clip-path-13)">
                <g id="Group_52" data-name="Group 52" transform="translate(530.12 1086.069)">
                  <g id="Group_51" data-name="Group 51" transform="translate(0 0)" clip-path="url(#clip-path-15)">
                    <path id="Path_8" data-name="Path 8" d="M-570.333,46.111c1.083-24.225,19.437-43.879,44.225-44.225q253.912-3.51,507.845-7C4.88-5.439,27.025,15.45,25.963,39.112,24.88,63.337,6.527,82.991-18.262,83.337q-253.912,3.51-507.845,7c-23.142.325-45.287-20.563-44.225-44.225" transform="translate(570.376 5.114)" fill="#e2231a"/>
                  </g>
                </g>
              </g>
              <g id="Group_56" data-name="Group 56" clip-path="url(#clip-path-13)">
                <g id="Group_55" data-name="Group 55" transform="translate(551.399 1125.397)">
                  <g id="Group_54" data-name="Group 54" transform="translate(0 0)" clip-path="url(#clip-path-17)">
                    <path id="Path_9" data-name="Path 9" d="M-531.485,334.744c0-19.957,15.991-33.5,34.821-34.843A1434.424,1434.424,0,0,0-16.922,180.464c17.183-7.649,37.422-4.984,47.649,12.5,8.689,14.843,4.767,39.957-12.5,47.649A1531.508,1531.508,0,0,1-496.663,369.565c-18.787,1.343-34.821-16.966-34.821-34.821" transform="translate(531.485 -176.412)" fill="#a1b1c8"/>
                  </g>
                </g>
              </g>
              <g id="Group_59" data-name="Group 59" clip-path="url(#clip-path-13)">
                <g id="Group_58" data-name="Group 58" transform="translate(597.791 1126.502)">
                  <g id="Group_57" data-name="Group 57" transform="translate(0 0)" clip-path="url(#clip-path-19)">
                    <path id="Path_10" data-name="Path 10" d="M-687.052,463.548c-5.07-22.275,6.717-43.164,28.472-50.119q246.859-78.982,463.6-226.241c17.682-12,45.937-3.944,55.753,14.626,10.9,20.628,4.247,42.947-14.626,55.753C-302.523,358.434-465.817,437.286-636.933,492.02c-20.3,6.5-45.374-7.606-50.119-28.472" transform="translate(688.222 -181.511)" fill="#ca003d"/>
                  </g>
                </g>
              </g>
              <g id="Group_62" data-name="Group 62" clip-path="url(#clip-path-13)">
                <g id="Group_61" data-name="Group 61" transform="translate(679.547 1136.513)">
                  <g id="Group_60" data-name="Group 60" transform="translate(0 0)" clip-path="url(#clip-path-34)">
                    <path id="Path_11" data-name="Path 11" d="M-747.5,590.978c-11.593-21.972-3.814-43.38,15.06-57.422q201.55-149.87,403.121-299.7c17.681-13.153,47.627-3.467,57.422,15.06,11.593,21.972,3.814,43.38-15.06,57.422Q-488.506,456.178-690.1,606.059c-17.682,13.109-47.606,3.445-57.4-15.081" transform="translate(752.96 -227.77)" fill="#e2231a"/>
                  </g>
                </g>
              </g>
              <g id="Group_65" data-name="Group 65" clip-path="url(#clip-path-13)">
                <g id="Group_64" data-name="Group 64" transform="translate(766.091 1095.538)">
                  <g id="Group_63" data-name="Group 63" transform="translate(0 0)" clip-path="url(#clip-path-36)">
                    <path id="Path_12" data-name="Path 12" d="M-792.207,541.878c-15.016-16.36-17.378-43.814,0-59.87q49.144-45.406,94.28-94.821,22.524-24.735,43.944-50.4c14.171-16.988,28.949-35.536,39.155-49.014A1549.526,1549.526,0,0,0-471.708,59.516c10.119-19.74,39.437-27.107,57.92-15.19,20.152,13,26,36.793,15.19,57.92A1583.84,1583.84,0,0,1-732.336,541.878c-16.273,15.038-43.987,17.313-59.87,0" transform="translate(804.363 -38.584)" fill="#822c41"/>
                  </g>
                </g>
              </g>
              <g id="Group_68" data-name="Group 68" clip-path="url(#clip-path-13)">
                <g id="Group_67" data-name="Group 67" transform="translate(884.899 1108.084)">
                  <g id="Group_66" data-name="Group 66" transform="translate(0 0)" clip-path="url(#clip-path-38)">
                    <path id="Path_13" data-name="Path 13" d="M-854.224,597.289A2634.321,2634.321,0,0,0-626.38,122.9c6.587-18.245,24.442-30.531,44.2-25.092,17.616,4.832,31.723,25.851,25.092,44.2a2727.514,2727.514,0,0,1-235.082,491.55c-24.03,39.458-86.219,3.38-62.059-36.273" transform="translate(859.706 -96.508)" fill="#e2231a"/>
                  </g>
                </g>
              </g>
              <g id="Group_71" data-name="Group 71" clip-path="url(#clip-path-13)">
                <g id="Group_70" data-name="Group 70" transform="translate(990.208 1096.383)">
                  <g id="Group_69" data-name="Group 69" transform="translate(0 0)" clip-path="url(#clip-path-40)">
                    <path id="Path_14" data-name="Path 14" d="M-878.26,615.337c-17.682-10.336-21.127-31.289-12.763-48.667A1365.069,1365.069,0,0,0-759.863,77.98c1.452-19.155,15.32-35.58,35.58-35.58,18.115,0,37.01,16.316,35.558,35.58A1459.384,1459.384,0,0,1-829.592,602.574c-8.342,17.313-33.023,21.907-48.667,12.763" transform="translate(895.356 -42.422)" fill="#b6008d"/>
                  </g>
                </g>
              </g>
              <g id="Group_74" data-name="Group 74" clip-path="url(#clip-path-13)">
                <g id="Group_73" data-name="Group 73" transform="translate(862.039 667.932)">
                  <g id="Group_72" data-name="Group 72" transform="translate(0)" clip-path="url(#clip-path-42)">
                    <path id="Path_15" data-name="Path 15" d="M-548.25-1469.38A3209.057,3209.057,0,0,1-775.38-1872.5c-9.317-19.718-6.154-45.981,14.995-57.162,18.548-9.794,47.194-6.11,57.162,14.995a3207.964,3207.964,0,0,0,227.108,403.142c12.091,18.245,4.182,47.021-14.995,57.161-20.953,11.051-44.247,4.485-57.14-15.016" transform="translate(780.32 1934.819)" fill="#b6008d"/>
                  </g>
                </g>
              </g>
              <g id="Group_77" data-name="Group 77" clip-path="url(#clip-path-13)">
                <g id="Group_76" data-name="Group 76" transform="translate(625.245 880.175)">
                  <g id="Group_75" data-name="Group 75" transform="translate(0 0)" clip-path="url(#clip-path-21)">
                    <path id="Path_16" data-name="Path 16" d="M-121.595-712.2-561.076-891.224c-16.208-6.609-27.671-21.582-22.644-39.892,4.225-15.363,23.575-29.3,39.892-22.644l439.481,179.047c16.208,6.609,27.671,21.56,22.644,39.892-4.225,15.341-23.575,29.274-39.892,22.622" transform="translate(584.911 955.428)" fill="#e2231a"/>
                  </g>
                </g>
              </g>
              <g id="Group_80" data-name="Group 80" clip-path="url(#clip-path-13)">
                <g id="Group_79" data-name="Group 79" transform="translate(709.059 764.703)">
                  <g id="Group_78" data-name="Group 78" transform="translate(0 0)" clip-path="url(#clip-path-46)">
                    <path id="Path_17" data-name="Path 17" d="M-220.376-1111.118c-139.805-83.749-261.452-193.37-360.911-322.254-12.026-15.6-2.383-40.824,13.066-49.881,18.83-11.008,37.812-2.557,49.881,13.066,90.943,117.877,206.458,219.264,334.757,296.122,16.858,10.1,23.077,32.741,13.066,49.859-9.881,16.9-32.915,23.229-49.859,13.088" transform="translate(586.683 1488.237)" fill="#a1b1c8"/>
                  </g>
                </g>
              </g>
              <g id="Group_83" data-name="Group 83" clip-path="url(#clip-path-13)">
                <g id="Group_82" data-name="Group 82" transform="translate(990.208 588.885)">
                  <g id="Group_81" data-name="Group 81" transform="translate(0)" clip-path="url(#clip-path-48)">
                    <path id="Path_18" data-name="Path 18" d="M-678.564-1766.863q-48.787-239.805-97.552-479.567c-4.4-21.625,6.241-46.739,29.556-52.048,21.083-4.811,47.324,6.349,52.048,29.556q48.754,239.773,97.53,479.546c4.4,21.625-6.24,46.739-29.556,52.048-21.083,4.811-47.324-6.349-52.026-29.534" transform="translate(777.091 2299.583)" fill="#ff5f00"/>
                  </g>
                </g>
              </g>
              <g id="Group_86" data-name="Group 86" clip-path="url(#clip-path-13)">
                <g id="Group_85" data-name="Group 85" transform="translate(564.162 984.27)">
                  <g id="Group_84" data-name="Group 84" transform="translate(0 0)" clip-path="url(#clip-path-23)">
                    <path id="Path_19" data-name="Path 19" d="M-651.009-396.752c-20.628-5.98-33.521-28.017-27.779-48.927,5.656-20.563,28.212-33.781,48.927-27.779,163.077,47.324,327.151,74.041,495.992,80.477,20.78.8,40.759,17.725,39.783,39.762-.932,20.867-17.508,40.628-39.783,39.783a2152.489,2152.489,0,0,1-517.141-83.315" transform="translate(680.175 474.91)" fill="#ff5f00"/>
                  </g>
                </g>
              </g>
              <g id="Group_89" data-name="Group 89" clip-path="url(#clip-path-13)">
                <g id="Group_88" data-name="Group 88" transform="translate(807.737 721.063)">
                  <g id="Group_87" data-name="Group 87" clip-path="url(#clip-path-52)">
                    <path id="Path_20" data-name="Path 20" d="M-638.718-1228.522a3281.762,3281.762,0,0,1-331.268-396.62c-12.568-17.747-7.736-46,11.073-57.595,19.458-12,44.182-7.844,57.595,11.073q72.579,102.416,152.936,199.047,19.567,23.467,39.545,46.544c14.453,16.685,22.882,26.2,37.963,42.861q42.481,47,86.8,92.264c15.125,15.471,20.2,41.474,3.9,58.527-14.54,15.211-42.319,20.5-58.548,3.9" transform="translate(976.963 1689.519)" fill="#ca003d"/>
                  </g>
                </g>
              </g>
            </g>
          </g>
        </g>
      </g>
    </g>
    <g id="Group_106" data-name="Group 106" transform="translate(0 376.909)">
      <g id="Group_105" data-name="Group 105" transform="translate(0 0)" clip-path="url(#clip-path-53)">
        <g id="Group_104" data-name="Group 104" transform="translate(-118.936 -312.031)">
          <g id="Group_103" data-name="Group 103" transform="translate(0 0)" clip-path="url(#clip-path-54)">
            <g id="Group_102" data-name="Group 102" transform="translate(-239.977 -251.915)" clip-path="url(#clip-path-55)">
              <g id="Group_97" data-name="Group 97" transform="translate(0 0)" clip-path="url(#clip-path-55)">
                <g id="Group_96" data-name="Group 96" transform="translate(268.28 528.37)">
                  <g id="Group_95" data-name="Group 95" transform="translate(0 0)" clip-path="url(#clip-path-57)">
                    <path id="Path_21" data-name="Path 21" d="M-1269.393,915.6c11.918-9.057,25.634-6.219,35.861,3.662,15.168,14.67,35.06,29.079,53.11,42.3,19.567,14.323,38.808,29.1,57.942,43.987,38.9,30.271,77.66,60.759,118.4,88.559,9.578,6.544,12.828,19.415,8.927,29.924,1.127,9.859-3.077,20.412-11.441,25.72-3.857,14.756-14.864,28.863-25.59,38.137-16.75,14.475-39.09,13.933-58.5,5.439-17.92-7.866-33.781-19.458-49.209-31.333-16.836-12.936-34.908-23.814-52.72-35.341-25.027-16.186-49.924-32.568-75.168-48.429-5.114-3.207-10.466-6.2-15.471-9.578-.2-.087-.412-.2-.65-.3-2.037-.975-4.1-1.994-6.132-2.99-9.448-4.615-19.61-9.187-27.714-16.035-11.051-9.339-19.068-21.5-17.486-36.62,1.365-13.088,10.748-24.29,18.548-34.258,16.251-20.78,25.677-46.414,47.3-62.839" transform="translate(1352.11 -898.472)" fill="#ca003d"/>
                  </g>
                </g>
              </g>
            </g>
          </g>
        </g>
      </g>
    </g>
    <g id="Group_114" data-name="Group 114" transform="translate(0 250.993)">
      <g id="Group_113" data-name="Group 113" transform="translate(0 0)" clip-path="url(#clip-path-60)">
        <g id="Group_112" data-name="Group 112" transform="translate(-47.439 -34.547)">
          <g id="Group_111" data-name="Group 111" clip-path="url(#clip-path-61)">
            <g id="Group_110" data-name="Group 110" transform="translate(-121.994 -266.544)" clip-path="url(#clip-path-62)">
              <g id="Group_109" data-name="Group 109" clip-path="url(#clip-path-62)">
                <g id="Group_108" data-name="Group 108" transform="translate(121.994 266.544)">
                  <g id="Group_107" data-name="Group 107" clip-path="url(#clip-path-64)">
                    <path id="Path_22" data-name="Path 22" d="M-197.988,323.944c-1.062,23.792-19.307,43.922-43.922,43.922-22.99,0-45.005-20.217-43.922-43.922,1.04-23.814,19.285-43.944,43.9-43.944,22.99,0,45.006,20.217,43.944,43.944" transform="translate(285.897 -280)" fill="#b6008d"/>
                  </g>
                </g>
              </g>
            </g>
          </g>
        </g>
      </g>
    </g>
  </g>
</svg>
